<svg width="23" height="23" viewBox="0 0 23 23" fill="none" xmlns="http://www.w3.org/2000/svg">
<path d="M16.8282 15.9588L16.287 15.4396L15.2486 16.522L15.7898 17.0412L16.8282 15.9588ZM20.4808 21.5412L21.022 22.0604L22.0604 20.978L21.5192 20.4588L20.4808 21.5412ZM18.25 10.0476C18.25 14.634 14.5526 18.3452 10 18.3452V19.8452C15.3885 19.8452 19.75 15.455 19.75 10.0476H18.25ZM10 18.3452C5.44738 18.3452 1.75 14.634 1.75 10.0476H0.25C0.25 15.455 4.6115 19.8452 10 19.8452V18.3452ZM1.75 10.0476C1.75 5.46123 5.44738 1.75 10 1.75V0.25C4.6115 0.25 0.25 4.64028 0.25 10.0476H1.75ZM10 1.75C14.5526 1.75 18.25 5.46123 18.25 10.0476H19.75C19.75 4.64028 15.3885 0.25 10 0.25V1.75ZM15.7898 17.0412L20.4808 21.5412L21.5192 20.4588L16.8282 15.9588L15.7898 17.0412Z" fill="#0E0E10"/>
</svg>
